<mxfile host="app.diagrams.net" agent="Mozilla/5.0 (Windows NT 10.0; Win64; x64) AppleWebKit/537.36 (KHTML, like Gecko) Chrome/135.0.0.0 Safari/537.36" version="26.2.14">
  <diagram id="prtHgNgQTEPvFCAcTncT" name="Page-1">
    <mxGraphModel dx="3007" dy="1098" grid="1" gridSize="10" guides="1" tooltips="1" connect="1" arrows="1" fold="1" page="1" pageScale="1" pageWidth="827" pageHeight="1169" math="0" shadow="0">
      <root>
        <mxCell id="0" />
        <mxCell id="1" parent="0" />
        <mxCell id="GkYKBSTtRAyULwkCoqcR-14" value="PROGRAMADOR&lt;div&gt;&lt;br&gt;&lt;/div&gt;" style="rounded=0;whiteSpace=wrap;html=1;fontFamily=Georgia;fillColor=#dae8fc;strokeColor=#6c8ebf;fontSize=29;gradientColor=#7ea6e0;" parent="1" vertex="1">
          <mxGeometry x="-810" y="340" width="270" height="115" as="geometry" />
        </mxCell>
        <mxCell id="GkYKBSTtRAyULwkCoqcR-16" value="&lt;font face=&quot;Georgia&quot;&gt;PENSAMIENTO LÓGICO PARA RESOLVER PROBLEMAS&lt;/font&gt;" style="ellipse;whiteSpace=wrap;html=1;fillColor=#cce5ff;strokeColor=#36393d;fontSize=14;" parent="1" vertex="1">
          <mxGeometry x="-413" y="119.99999999999999" width="210" height="110" as="geometry" />
        </mxCell>
        <mxCell id="GkYKBSTtRAyULwkCoqcR-18" value="" style="shape=flexArrow;endArrow=classic;html=1;rounded=0;exitX=1;exitY=0.25;exitDx=0;exitDy=0;entryX=0;entryY=0.5;entryDx=0;entryDy=0;fillColor=#1ba1e2;strokeColor=#006EAF;" parent="1" source="GkYKBSTtRAyULwkCoqcR-14" target="GkYKBSTtRAyULwkCoqcR-16" edge="1">
          <mxGeometry width="50" height="50" relative="1" as="geometry">
            <mxPoint x="-565.4699999999998" y="40.00499999999994" as="sourcePoint" />
            <mxPoint x="-55.560396500537706" y="-97.66613859613312" as="targetPoint" />
          </mxGeometry>
        </mxCell>
        <mxCell id="GkYKBSTtRAyULwkCoqcR-19" value="RESOLVER PROBLEMAS &#xa;DE MANERA: " style="shape=table;startSize=50;container=1;collapsible=0;childLayout=tableLayout;fixedRows=1;rowLines=0;fontStyle=0;strokeColor=#10739e;fontSize=15;fontFamily=Georgia;fillColor=#b1ddf0;" parent="1" vertex="1">
          <mxGeometry x="-400" y="327.5" width="180" height="110" as="geometry" />
        </mxCell>
        <mxCell id="GkYKBSTtRAyULwkCoqcR-20" value="" style="shape=tableRow;horizontal=0;startSize=0;swimlaneHead=0;swimlaneBody=0;top=0;left=0;bottom=0;right=0;collapsible=0;dropTarget=0;fillColor=none;points=[[0,0.5],[1,0.5]];portConstraint=eastwest;strokeColor=inherit;fontSize=16;" parent="GkYKBSTtRAyULwkCoqcR-19" vertex="1">
          <mxGeometry y="50" width="180" height="20" as="geometry" />
        </mxCell>
        <mxCell id="GkYKBSTtRAyULwkCoqcR-21" value="1" style="shape=partialRectangle;html=1;whiteSpace=wrap;connectable=0;top=0;left=0;bottom=0;right=0;overflow=hidden;pointerEvents=1;fontSize=16;fillColor=#f5f5f5;fontColor=#333333;strokeColor=#666666;" parent="GkYKBSTtRAyULwkCoqcR-20" vertex="1">
          <mxGeometry width="40" height="20" as="geometry">
            <mxRectangle width="40" height="20" as="alternateBounds" />
          </mxGeometry>
        </mxCell>
        <mxCell id="GkYKBSTtRAyULwkCoqcR-22" value="&lt;font style=&quot;font-size: 15px;&quot; face=&quot;Georgia&quot;&gt;EFICIENTE&lt;/font&gt;" style="shape=partialRectangle;html=1;whiteSpace=wrap;connectable=0;fillColor=#eeeeee;top=0;left=0;bottom=0;right=0;align=left;spacingLeft=6;overflow=hidden;strokeColor=#36393d;fontSize=16;" parent="GkYKBSTtRAyULwkCoqcR-20" vertex="1">
          <mxGeometry x="40" width="140" height="20" as="geometry">
            <mxRectangle width="140" height="20" as="alternateBounds" />
          </mxGeometry>
        </mxCell>
        <mxCell id="GkYKBSTtRAyULwkCoqcR-23" value="" style="shape=tableRow;horizontal=0;startSize=0;swimlaneHead=0;swimlaneBody=0;top=0;left=0;bottom=0;right=0;collapsible=0;dropTarget=0;fillColor=none;points=[[0,0.5],[1,0.5]];portConstraint=eastwest;strokeColor=inherit;fontSize=16;" parent="GkYKBSTtRAyULwkCoqcR-19" vertex="1">
          <mxGeometry y="70" width="180" height="20" as="geometry" />
        </mxCell>
        <mxCell id="GkYKBSTtRAyULwkCoqcR-24" value="2" style="shape=partialRectangle;html=1;whiteSpace=wrap;connectable=0;fillColor=#bac8d3;top=0;left=0;bottom=0;right=0;overflow=hidden;strokeColor=#23445d;fontSize=16;" parent="GkYKBSTtRAyULwkCoqcR-23" vertex="1">
          <mxGeometry width="40" height="20" as="geometry">
            <mxRectangle width="40" height="20" as="alternateBounds" />
          </mxGeometry>
        </mxCell>
        <mxCell id="GkYKBSTtRAyULwkCoqcR-25" value="&lt;font style=&quot;font-size: 15px;&quot;&gt;ESCALONADA&lt;/font&gt;" style="shape=partialRectangle;html=1;whiteSpace=wrap;connectable=0;fillColor=#bac8d3;top=0;left=0;bottom=0;right=0;align=left;spacingLeft=6;overflow=hidden;strokeColor=#23445d;fontSize=16;fontFamily=Georgia;" parent="GkYKBSTtRAyULwkCoqcR-23" vertex="1">
          <mxGeometry x="40" width="140" height="20" as="geometry">
            <mxRectangle width="140" height="20" as="alternateBounds" />
          </mxGeometry>
        </mxCell>
        <mxCell id="GkYKBSTtRAyULwkCoqcR-26" value="" style="shape=tableRow;horizontal=0;startSize=0;swimlaneHead=0;swimlaneBody=0;top=0;left=0;bottom=0;right=0;collapsible=0;dropTarget=0;fillColor=none;points=[[0,0.5],[1,0.5]];portConstraint=eastwest;strokeColor=inherit;fontSize=16;" parent="GkYKBSTtRAyULwkCoqcR-19" vertex="1">
          <mxGeometry y="90" width="180" height="20" as="geometry" />
        </mxCell>
        <mxCell id="GkYKBSTtRAyULwkCoqcR-27" value="3" style="shape=partialRectangle;html=1;whiteSpace=wrap;connectable=0;fillColor=#dae8fc;top=0;left=0;bottom=0;right=0;overflow=hidden;strokeColor=#6c8ebf;fontSize=16;" parent="GkYKBSTtRAyULwkCoqcR-26" vertex="1">
          <mxGeometry width="40" height="20" as="geometry">
            <mxRectangle width="40" height="20" as="alternateBounds" />
          </mxGeometry>
        </mxCell>
        <mxCell id="GkYKBSTtRAyULwkCoqcR-28" value="&lt;font style=&quot;font-size: 15px;&quot;&gt;FLEXIBLE&lt;/font&gt;" style="shape=partialRectangle;html=1;whiteSpace=wrap;connectable=0;fillColor=#dae8fc;top=0;left=0;bottom=0;right=0;align=left;spacingLeft=6;overflow=hidden;strokeColor=#6c8ebf;fontSize=16;fontFamily=Georgia;" parent="GkYKBSTtRAyULwkCoqcR-26" vertex="1">
          <mxGeometry x="40" width="140" height="20" as="geometry">
            <mxRectangle width="140" height="20" as="alternateBounds" />
          </mxGeometry>
        </mxCell>
        <mxCell id="GkYKBSTtRAyULwkCoqcR-29" value="" style="shape=flexArrow;endArrow=classic;html=1;rounded=0;exitX=1;exitY=0.5;exitDx=0;exitDy=0;entryX=0;entryY=0.25;entryDx=0;entryDy=0;fillColor=#1ba1e2;strokeColor=#006EAF;" parent="1" source="GkYKBSTtRAyULwkCoqcR-14" target="GkYKBSTtRAyULwkCoqcR-19" edge="1">
          <mxGeometry width="50" height="50" relative="1" as="geometry">
            <mxPoint x="-210" y="240" as="sourcePoint" />
            <mxPoint x="-90" y="250" as="targetPoint" />
          </mxGeometry>
        </mxCell>
        <mxCell id="GkYKBSTtRAyULwkCoqcR-52" value="" style="edgeStyle=orthogonalEdgeStyle;rounded=0;orthogonalLoop=1;jettySize=auto;html=1;exitX=0.774;exitY=0.216;exitDx=0;exitDy=0;exitPerimeter=0;entryX=-0.004;entryY=0.09;entryDx=0;entryDy=0;entryPerimeter=0;" parent="1" source="GkYKBSTtRAyULwkCoqcR-31" target="GkYKBSTtRAyULwkCoqcR-43" edge="1">
          <mxGeometry relative="1" as="geometry" />
        </mxCell>
        <mxCell id="GkYKBSTtRAyULwkCoqcR-31" value="ALGORITMO&lt;div&gt;&lt;span lang=&quot;EN-US&quot; style=&quot;font-family: Calibri, sans-serif;&quot;&gt;Secuencia de pasos bien definidos para resolver&lt;br&gt;problemas.&lt;/span&gt;&lt;/div&gt;&lt;div&gt;&lt;span lang=&quot;EN-US&quot; style=&quot;font-family: Calibri, sans-serif;&quot;&gt;&lt;br&gt;&lt;/span&gt;&lt;/div&gt;" style="ellipse;shape=cloud;whiteSpace=wrap;html=1;fontSize=16;fillColor=#dae8fc;gradientColor=#7ea6e0;strokeColor=#6c8ebf;" parent="1" vertex="1">
          <mxGeometry x="-140" y="315" width="390" height="145" as="geometry" />
        </mxCell>
        <mxCell id="GkYKBSTtRAyULwkCoqcR-34" value="" style="shape=flexArrow;endArrow=classic;html=1;rounded=0;exitX=1;exitY=0.5;exitDx=0;exitDy=0;entryX=0.289;entryY=0.183;entryDx=0;entryDy=0;fillColor=#1ba1e2;strokeColor=#006EAF;entryPerimeter=0;" parent="1" source="GkYKBSTtRAyULwkCoqcR-16" target="GkYKBSTtRAyULwkCoqcR-31" edge="1">
          <mxGeometry width="50" height="50" relative="1" as="geometry">
            <mxPoint x="-165.56" y="-37.670000000000016" as="sourcePoint" />
            <mxPoint x="-54.99999999999983" y="93.32" as="targetPoint" />
          </mxGeometry>
        </mxCell>
        <mxCell id="GkYKBSTtRAyULwkCoqcR-35" value="" style="shape=flexArrow;endArrow=classic;html=1;rounded=0;entryX=0.075;entryY=0.356;entryDx=0;entryDy=0;fillColor=#1ba1e2;strokeColor=#006EAF;entryPerimeter=0;exitX=1;exitY=0.25;exitDx=0;exitDy=0;" parent="1" source="GkYKBSTtRAyULwkCoqcR-19" target="GkYKBSTtRAyULwkCoqcR-31" edge="1">
          <mxGeometry width="50" height="50" relative="1" as="geometry">
            <mxPoint x="-180" y="380" as="sourcePoint" />
            <mxPoint x="-110" y="385" as="targetPoint" />
          </mxGeometry>
        </mxCell>
        <mxCell id="GkYKBSTtRAyULwkCoqcR-37" value="" style="edgeStyle=elbowEdgeStyle;elbow=vertical;endArrow=classic;html=1;curved=0;rounded=0;endSize=8;startSize=8;exitX=0.256;exitY=0.834;exitDx=0;exitDy=0;exitPerimeter=0;" parent="1" source="GkYKBSTtRAyULwkCoqcR-31" target="GkYKBSTtRAyULwkCoqcR-38" edge="1">
          <mxGeometry width="50" height="50" relative="1" as="geometry">
            <mxPoint x="-30" y="490" as="sourcePoint" />
            <mxPoint x="-300" y="540" as="targetPoint" />
          </mxGeometry>
        </mxCell>
        <mxCell id="GkYKBSTtRAyULwkCoqcR-38" value="EXPRESADO EN FORMA ESCRITA" style="shape=loopLimit;whiteSpace=wrap;html=1;" parent="1" vertex="1">
          <mxGeometry x="-220" y="500" width="110" height="80" as="geometry" />
        </mxCell>
        <mxCell id="GkYKBSTtRAyULwkCoqcR-39" value="" style="edgeStyle=elbowEdgeStyle;elbow=vertical;endArrow=classic;html=1;curved=0;rounded=0;endSize=8;startSize=8;exitX=0.55;exitY=0.95;exitDx=0;exitDy=0;exitPerimeter=0;" parent="1" source="GkYKBSTtRAyULwkCoqcR-31" target="GkYKBSTtRAyULwkCoqcR-40" edge="1">
          <mxGeometry width="50" height="50" relative="1" as="geometry">
            <mxPoint x="130" y="468" as="sourcePoint" />
            <mxPoint x="-130" y="572" as="targetPoint" />
          </mxGeometry>
        </mxCell>
        <mxCell id="GkYKBSTtRAyULwkCoqcR-40" value="REPRESENTADO EN PSEUDOCÓDIGO" style="shape=loopLimit;whiteSpace=wrap;html=1;" parent="1" vertex="1">
          <mxGeometry x="-75" y="510" width="115" height="80" as="geometry" />
        </mxCell>
        <mxCell id="GkYKBSTtRAyULwkCoqcR-42" value="REPRESENTADO EN DIAGRAMA DE FLUJO" style="shape=loopLimit;whiteSpace=wrap;html=1;" parent="1" vertex="1">
          <mxGeometry x="110" y="510" width="110" height="80" as="geometry" />
        </mxCell>
        <mxCell id="GkYKBSTtRAyULwkCoqcR-43" value="CARACTERISTICAS&amp;nbsp;" style="swimlane;fontStyle=0;childLayout=stackLayout;horizontal=1;startSize=26;fillColor=none;horizontalStack=0;resizeParent=1;resizeParentMax=0;resizeLast=0;collapsible=1;marginBottom=0;html=1;" parent="1" vertex="1">
          <mxGeometry x="240" y="63" width="200" height="202" as="geometry" />
        </mxCell>
        <mxCell id="GkYKBSTtRAyULwkCoqcR-44" value="FINITO" style="text;strokeColor=none;fillColor=none;align=left;verticalAlign=top;spacingLeft=4;spacingRight=4;overflow=hidden;rotatable=0;points=[[0,0.5],[1,0.5]];portConstraint=eastwest;whiteSpace=wrap;html=1;" parent="GkYKBSTtRAyULwkCoqcR-43" vertex="1">
          <mxGeometry y="26" width="200" height="24" as="geometry" />
        </mxCell>
        <mxCell id="GkYKBSTtRAyULwkCoqcR-45" value="DEFINIDO" style="text;strokeColor=none;fillColor=none;align=left;verticalAlign=top;spacingLeft=4;spacingRight=4;overflow=hidden;rotatable=0;points=[[0,0.5],[1,0.5]];portConstraint=eastwest;whiteSpace=wrap;html=1;" parent="GkYKBSTtRAyULwkCoqcR-43" vertex="1">
          <mxGeometry y="50" width="200" height="20" as="geometry" />
        </mxCell>
        <mxCell id="GkYKBSTtRAyULwkCoqcR-47" value="CLARO&lt;div&gt;&lt;br&gt;&lt;/div&gt;" style="text;strokeColor=none;fillColor=none;align=left;verticalAlign=top;spacingLeft=4;spacingRight=4;overflow=hidden;rotatable=0;points=[[0,0.5],[1,0.5]];portConstraint=eastwest;whiteSpace=wrap;html=1;" parent="GkYKBSTtRAyULwkCoqcR-43" vertex="1">
          <mxGeometry y="70" width="200" height="22" as="geometry" />
        </mxCell>
        <mxCell id="GkYKBSTtRAyULwkCoqcR-50" value="&lt;div&gt;CORRECTO&lt;/div&gt;" style="text;strokeColor=none;fillColor=none;align=left;verticalAlign=top;spacingLeft=4;spacingRight=4;overflow=hidden;rotatable=0;points=[[0,0.5],[1,0.5]];portConstraint=eastwest;whiteSpace=wrap;html=1;" parent="GkYKBSTtRAyULwkCoqcR-43" vertex="1">
          <mxGeometry y="92" width="200" height="22" as="geometry" />
        </mxCell>
        <mxCell id="GkYKBSTtRAyULwkCoqcR-51" value="&lt;div&gt;EFICIENTE&lt;/div&gt;" style="text;strokeColor=none;fillColor=none;align=left;verticalAlign=top;spacingLeft=4;spacingRight=4;overflow=hidden;rotatable=0;points=[[0,0.5],[1,0.5]];portConstraint=eastwest;whiteSpace=wrap;html=1;" parent="GkYKBSTtRAyULwkCoqcR-43" vertex="1">
          <mxGeometry y="114" width="200" height="22" as="geometry" />
        </mxCell>
        <mxCell id="GkYKBSTtRAyULwkCoqcR-49" value="&lt;div&gt;ORDENADO Y PRECISO&lt;/div&gt;" style="text;strokeColor=none;fillColor=none;align=left;verticalAlign=top;spacingLeft=4;spacingRight=4;overflow=hidden;rotatable=0;points=[[0,0.5],[1,0.5]];portConstraint=eastwest;whiteSpace=wrap;html=1;" parent="GkYKBSTtRAyULwkCoqcR-43" vertex="1">
          <mxGeometry y="136" width="200" height="22" as="geometry" />
        </mxCell>
        <mxCell id="GkYKBSTtRAyULwkCoqcR-48" value="&lt;div&gt;DATO DE ENTRADA Y SALIDA&lt;/div&gt;" style="text;strokeColor=none;fillColor=none;align=left;verticalAlign=top;spacingLeft=4;spacingRight=4;overflow=hidden;rotatable=0;points=[[0,0.5],[1,0.5]];portConstraint=eastwest;whiteSpace=wrap;html=1;" parent="GkYKBSTtRAyULwkCoqcR-43" vertex="1">
          <mxGeometry y="158" width="200" height="22" as="geometry" />
        </mxCell>
        <mxCell id="GkYKBSTtRAyULwkCoqcR-46" value="&lt;div&gt;MODULAR&lt;/div&gt;" style="text;strokeColor=none;fillColor=none;align=left;verticalAlign=top;spacingLeft=4;spacingRight=4;overflow=hidden;rotatable=0;points=[[0,0.5],[1,0.5]];portConstraint=eastwest;whiteSpace=wrap;html=1;" parent="GkYKBSTtRAyULwkCoqcR-43" vertex="1">
          <mxGeometry y="180" width="200" height="22" as="geometry" />
        </mxCell>
        <mxCell id="GkYKBSTtRAyULwkCoqcR-53" value="&lt;div&gt;&lt;span style=&quot;font-size: 11pt; line-height: 107%; font-family: Calibri, sans-serif; background-image: initial; background-position: initial; background-size: initial; background-repeat: initial; background-attachment: initial; background-origin: initial; background-clip: initial;&quot; lang=&quot;EN-US&quot;&gt;Es crucial comprender bien cuál es el PROBLEMA.&lt;/span&gt;&lt;/div&gt;" style="rounded=0;whiteSpace=wrap;html=1;fontFamily=Georgia;fillColor=#dae8fc;strokeColor=#6c8ebf;fontSize=22;gradientColor=#7ea6e0;fontStyle=1" parent="1" vertex="1">
          <mxGeometry x="-430" y="660" width="180" height="92.5" as="geometry" />
        </mxCell>
        <mxCell id="GkYKBSTtRAyULwkCoqcR-59" value="" style="edgeStyle=orthogonalEdgeStyle;rounded=0;orthogonalLoop=1;jettySize=auto;html=1;exitX=0.998;exitY=0.465;exitDx=0;exitDy=0;exitPerimeter=0;" parent="1" source="GkYKBSTtRAyULwkCoqcR-53" target="GkYKBSTtRAyULwkCoqcR-58" edge="1">
          <mxGeometry relative="1" as="geometry" />
        </mxCell>
        <mxCell id="GkYKBSTtRAyULwkCoqcR-62" value="" style="edgeStyle=orthogonalEdgeStyle;rounded=0;orthogonalLoop=1;jettySize=auto;html=1;" parent="1" source="GkYKBSTtRAyULwkCoqcR-58" target="GkYKBSTtRAyULwkCoqcR-61" edge="1">
          <mxGeometry relative="1" as="geometry" />
        </mxCell>
        <mxCell id="GkYKBSTtRAyULwkCoqcR-63" value="" style="edgeStyle=orthogonalEdgeStyle;rounded=0;orthogonalLoop=1;jettySize=auto;html=1;" parent="1" source="GkYKBSTtRAyULwkCoqcR-58" target="GkYKBSTtRAyULwkCoqcR-61" edge="1">
          <mxGeometry relative="1" as="geometry" />
        </mxCell>
        <mxCell id="GkYKBSTtRAyULwkCoqcR-58" value="&lt;div style=&quot;font-family: Georgia;&quot;&gt;DIVIDIR EN PARTES AL PROBLEMA.&amp;nbsp;&lt;/div&gt;" style="ellipse;html=1;strokeWidth=4;fillWeight=2;hachureGap=8;fillColor=#990000;fillStyle=dots;sketch=1;fontStyle=1;fontSize=14;labelBackgroundColor=none;fontColor=default;whiteSpace=wrap;gradientColor=none;opacity=30;" parent="1" vertex="1">
          <mxGeometry x="-250" y="792.5" width="195" height="142.5" as="geometry" />
        </mxCell>
        <mxCell id="GkYKBSTtRAyULwkCoqcR-60" value="&lt;div style=&quot;font-family: Georgia;&quot;&gt;&lt;span style=&quot;background-color: transparent; color: light-dark(rgb(0, 0, 0), rgb(255, 255, 255));&quot;&gt;PARTES PEQUEÑAS&amp;nbsp;&lt;/span&gt;&lt;/div&gt;" style="ellipse;html=1;strokeWidth=4;fillWeight=2;hachureGap=8;fillColor=#990000;fillStyle=dots;sketch=1;fontStyle=1;fontSize=11;labelBackgroundColor=none;fontColor=default;whiteSpace=wrap;gradientColor=none;opacity=30;" parent="1" vertex="1">
          <mxGeometry x="110" y="717.5" width="100" height="85" as="geometry" />
        </mxCell>
        <mxCell id="GkYKBSTtRAyULwkCoqcR-61" value="&lt;div style=&quot;font-family: Georgia;&quot;&gt;&lt;span style=&quot;background-color: transparent; color: light-dark(rgb(0, 0, 0), rgb(255, 255, 255));&quot;&gt;PARTES MANEJABLES&lt;/span&gt;&lt;/div&gt;" style="ellipse;html=1;strokeWidth=4;fillWeight=2;hachureGap=8;fillColor=#990000;fillStyle=dots;sketch=1;fontStyle=1;fontSize=11;labelBackgroundColor=none;fontColor=default;whiteSpace=wrap;gradientColor=none;opacity=30;" parent="1" vertex="1">
          <mxGeometry x="110" y="872.5" width="110" height="70" as="geometry" />
        </mxCell>
        <mxCell id="GkYKBSTtRAyULwkCoqcR-64" value="" style="edgeStyle=orthogonalEdgeStyle;rounded=0;orthogonalLoop=1;jettySize=auto;html=1;entryX=0.026;entryY=0.615;entryDx=0;entryDy=0;entryPerimeter=0;exitX=1;exitY=0.5;exitDx=0;exitDy=0;" parent="1" source="GkYKBSTtRAyULwkCoqcR-58" target="GkYKBSTtRAyULwkCoqcR-60" edge="1">
          <mxGeometry relative="1" as="geometry">
            <mxPoint x="90" y="870.5" as="sourcePoint" />
            <mxPoint x="120" y="950.5" as="targetPoint" />
          </mxGeometry>
        </mxCell>
        <mxCell id="GkYKBSTtRAyULwkCoqcR-66" value="" style="shape=flexArrow;endArrow=classic;html=1;rounded=0;exitX=1;exitY=0.75;exitDx=0;exitDy=0;entryX=0.25;entryY=0;entryDx=0;entryDy=0;fillColor=#1ba1e2;strokeColor=#006EAF;" parent="1" source="GkYKBSTtRAyULwkCoqcR-14" target="GkYKBSTtRAyULwkCoqcR-53" edge="1">
          <mxGeometry width="50" height="50" relative="1" as="geometry">
            <mxPoint x="-295" y="275" as="sourcePoint" />
            <mxPoint x="-295" y="325" as="targetPoint" />
          </mxGeometry>
        </mxCell>
        <mxCell id="GkYKBSTtRAyULwkCoqcR-67" value="" style="shape=flexArrow;endArrow=classic;startArrow=classic;html=1;rounded=0;exitX=0.99;exitY=0.388;exitDx=0;exitDy=0;exitPerimeter=0;fillColor=#b1ddf0;strokeColor=#10739e;" parent="1" source="GkYKBSTtRAyULwkCoqcR-60" edge="1">
          <mxGeometry width="100" height="100" relative="1" as="geometry">
            <mxPoint x="220" y="680" as="sourcePoint" />
            <mxPoint x="340" y="780" as="targetPoint" />
          </mxGeometry>
        </mxCell>
        <mxCell id="GkYKBSTtRAyULwkCoqcR-68" value="" style="shape=flexArrow;endArrow=classic;startArrow=classic;html=1;rounded=0;exitX=1;exitY=0.5;exitDx=0;exitDy=0;fillColor=#b1ddf0;strokeColor=#10739e;" parent="1" source="GkYKBSTtRAyULwkCoqcR-61" edge="1">
          <mxGeometry width="100" height="100" relative="1" as="geometry">
            <mxPoint x="199" y="688" as="sourcePoint" />
            <mxPoint x="330" y="810" as="targetPoint" />
          </mxGeometry>
        </mxCell>
        <mxCell id="GkYKBSTtRAyULwkCoqcR-69" value="" style="shape=flexArrow;endArrow=classic;startArrow=classic;html=1;rounded=0;exitX=0.931;exitY=0.772;exitDx=0;exitDy=0;exitPerimeter=0;fillColor=#b1ddf0;strokeColor=#10739e;" parent="1" source="GkYKBSTtRAyULwkCoqcR-31" edge="1">
          <mxGeometry width="100" height="100" relative="1" as="geometry">
            <mxPoint x="240" y="470" as="sourcePoint" />
            <mxPoint x="330" y="740" as="targetPoint" />
          </mxGeometry>
        </mxCell>
        <mxCell id="GkYKBSTtRAyULwkCoqcR-70" value="DESARROLLAR ALGORITMOS" style="shape=hexagon;perimeter=hexagonPerimeter2;whiteSpace=wrap;html=1;fixedSize=1;fontSize=20;fillColor=#0050ef;fontColor=#ffffff;strokeColor=#001DBC;" parent="1" vertex="1">
          <mxGeometry x="400" y="290" width="170" height="110" as="geometry" />
        </mxCell>
        <mxCell id="GkYKBSTtRAyULwkCoqcR-71" value="IDENTIFICAR ETAPAS&amp;nbsp;&lt;div&gt;PARA SU RESOLUCIÓN.&lt;/div&gt;" style="shape=step;perimeter=stepPerimeter;whiteSpace=wrap;html=1;fixedSize=1;" parent="1" vertex="1">
          <mxGeometry x="590" y="302.5" width="180" height="85" as="geometry" />
        </mxCell>
        <mxCell id="GkYKBSTtRAyULwkCoqcR-73" value="REPRESENTAR EN PSEUDOCÓDIGO O EN DIAGRAMA DE FLUJO" style="shape=step;perimeter=stepPerimeter;whiteSpace=wrap;html=1;fixedSize=1;" parent="1" vertex="1">
          <mxGeometry x="610" y="455" width="180" height="80" as="geometry" />
        </mxCell>
        <mxCell id="GkYKBSTtRAyULwkCoqcR-74" value="PRESENTACIÓN DE&amp;nbsp; ALGORITMOS" style="shape=hexagon;perimeter=hexagonPerimeter2;whiteSpace=wrap;html=1;fixedSize=1;fontSize=20;fillColor=#0050ef;fontColor=#ffffff;strokeColor=#001DBC;" parent="1" vertex="1">
          <mxGeometry x="390" y="440" width="190" height="110" as="geometry" />
        </mxCell>
        <mxCell id="GkYKBSTtRAyULwkCoqcR-75" value="TRADUCIR AL LENGUAJE DE PROGRAMACIÓN" style="shape=hexagon;perimeter=hexagonPerimeter2;whiteSpace=wrap;html=1;fixedSize=1;fontSize=20;fillColor=#0050ef;fontColor=#ffffff;strokeColor=#001DBC;" parent="1" vertex="1">
          <mxGeometry x="390" y="590" width="190" height="110" as="geometry" />
        </mxCell>
        <mxCell id="GkYKBSTtRAyULwkCoqcR-79" value="EJECUCION Y DEPURACION" style="shape=hexagon;perimeter=hexagonPerimeter2;whiteSpace=wrap;html=1;fixedSize=1;fontSize=20;fillColor=#0050ef;fontColor=#ffffff;strokeColor=#001DBC;" parent="1" vertex="1">
          <mxGeometry x="390" y="740" width="190" height="80" as="geometry" />
        </mxCell>
        <mxCell id="GkYKBSTtRAyULwkCoqcR-80" value="PROYECTO LISTO PARA SER LANZADO" style="shape=hexagon;perimeter=hexagonPerimeter2;whiteSpace=wrap;html=1;fixedSize=1;fontSize=20;fillColor=#0050ef;fontColor=#ffffff;strokeColor=#001DBC;" parent="1" vertex="1">
          <mxGeometry x="360" y="860" width="250" height="140" as="geometry" />
        </mxCell>
        <mxCell id="GkYKBSTtRAyULwkCoqcR-81" value="ELEGIR EL LENGUAJE DE PROGRAMACION" style="shape=step;perimeter=stepPerimeter;whiteSpace=wrap;html=1;fixedSize=1;" parent="1" vertex="1">
          <mxGeometry x="610" y="605" width="190" height="80" as="geometry" />
        </mxCell>
        <mxCell id="GkYKBSTtRAyULwkCoqcR-82" value="ÁREA DE TESTEO Ó&amp;nbsp;&lt;div&gt;CONTROL DE CALIDAD:&lt;div&gt;SE DEBERÁN RESOLVER Y AJUSTAR ALGUNAS COSAS&lt;/div&gt;&lt;/div&gt;" style="shape=step;perimeter=stepPerimeter;whiteSpace=wrap;html=1;fixedSize=1;" parent="1" vertex="1">
          <mxGeometry x="605" y="740" width="205" height="80" as="geometry" />
        </mxCell>
        <mxCell id="GkYKBSTtRAyULwkCoqcR-83" value="MANTENIMIENTO SOSTENIBLE Y ESCALABLE DEL PROYECTO" style="shape=hexagon;perimeter=hexagonPerimeter2;whiteSpace=wrap;html=1;fixedSize=1;fontSize=20;fillColor=#0050ef;fontColor=#ffffff;strokeColor=#001DBC;" parent="1" vertex="1">
          <mxGeometry x="385" y="1030" width="200" height="120" as="geometry" />
        </mxCell>
        <mxCell id="GkYKBSTtRAyULwkCoqcR-84" value="CAPAZ DE PODER MANTENERSE Y MODIFICARSE EN EL TIEMPO" style="shape=step;perimeter=stepPerimeter;whiteSpace=wrap;html=1;fixedSize=1;" parent="1" vertex="1">
          <mxGeometry x="605" y="1050" width="165" height="90" as="geometry" />
        </mxCell>
        <mxCell id="GkYKBSTtRAyULwkCoqcR-85" value="" style="shape=curlyBracket;whiteSpace=wrap;html=1;rounded=1;labelPosition=left;verticalLabelPosition=middle;align=right;verticalAlign=middle;size=0.5;" parent="1" vertex="1">
          <mxGeometry x="330" y="340" width="50" height="790" as="geometry" />
        </mxCell>
        <mxCell id="Yx0McXRv5DG4CEeH8fYv-1" value="" style="edgeStyle=elbowEdgeStyle;elbow=vertical;endArrow=classic;html=1;curved=0;rounded=0;endSize=8;startSize=8;exitX=0.55;exitY=0.95;exitDx=0;exitDy=0;exitPerimeter=0;entryX=0.5;entryY=0;entryDx=0;entryDy=0;" edge="1" parent="1" source="GkYKBSTtRAyULwkCoqcR-31" target="GkYKBSTtRAyULwkCoqcR-42">
          <mxGeometry width="50" height="50" relative="1" as="geometry">
            <mxPoint x="85" y="463" as="sourcePoint" />
            <mxPoint x="-7" y="520" as="targetPoint" />
            <Array as="points">
              <mxPoint x="120" y="490" />
            </Array>
          </mxGeometry>
        </mxCell>
      </root>
    </mxGraphModel>
  </diagram>
</mxfile>
